<svg width="30" height="30" viewBox="0 0 30 30" fill="none" xmlns="http://www.w3.org/2000/svg">
<path d="M2.89981 17.8999L17.8998 2.89994C20.3998 0.29994 24.4998 0.29994 27.0998 2.79994C29.6998 5.29994 29.6998 9.49994 27.0998 11.9999L26.9998 12.0999L24.1998 14.9999L22.7998 13.5999L25.6998 10.6999C27.3998 8.99994 27.3998 6.09994 25.6998 4.39994C23.9998 2.69994 21.0998 2.59994 19.3998 4.29994C19.3998 4.29994 19.3998 4.29994 19.2998 4.39994L4.39981 19.2999C2.59981 20.9999 2.5998 23.8999 4.2998 25.5999C5.99981 27.3999 8.89981 27.3999 10.5998 25.6999C10.5998 25.6999 10.5998 25.6999 10.6998 25.5999L18.0998 18.1999C19.0998 17.1999 18.9998 15.5999 18.0998 14.6999C17.0998 13.7999 15.5998 13.7999 14.5998 14.6999L10.4998 18.7999L9.09981 17.3999L13.2998 13.1999C15.0998 11.4999 17.8998 11.5999 19.5998 13.3999C21.1998 15.0999 21.1998 17.7999 19.5998 19.5999L12.0998 27.0999C9.59981 29.6999 5.49981 29.6999 2.89981 27.1999C0.299805 24.6999 0.299805 20.4999 2.89981 17.8999C2.89981 17.9999 2.89981 17.8999 2.89981 17.8999Z" fill="#BBBBBB"/>
</svg>
