<svg width="24" height="24" viewBox="0 0 24 24" fill="none" xmlns="http://www.w3.org/2000/svg">
<path d="M14 24H10C9.46957 24 8.96086 23.7893 8.58579 23.4142C8.21071 23.0391 8 22.5304 8 22V14.41L0.59 7C0.214412 6.62665 0.00223279 6.11958 0 5.59V2C0 1.46957 0.210714 0.960859 0.585786 0.585786C0.960859 0.210714 1.46957 0 2 0H22C22.5304 0 23.0391 0.210714 23.4142 0.585786C23.7893 0.960859 24 1.46957 24 2V5.59C23.9978 6.11958 23.7856 6.62665 23.41 7L16 14.41V22C16 22.5304 15.7893 23.0391 15.4142 23.4142C15.0391 23.7893 14.5304 24 14 24ZM2 2V5.59L10 13.59V22H14V13.59L22 5.59V2H2Z" fill="white"/>
</svg>
