<svg width="18" height="28" viewBox="0 0 18 28" fill="none" xmlns="http://www.w3.org/2000/svg">
<path d="M16 12V15C16 16.8565 15.2625 18.637 13.9497 19.9497C12.637 21.2625 10.8565 22 9 22C7.14348 22 5.36301 21.2625 4.05025 19.9497C2.7375 18.637 2 16.8565 2 15V12H0V15C0.00105047 17.2131 0.817454 19.3482 2.29322 20.9973C3.76899 22.6465 5.80064 23.6941 8 23.94V26H4V28H14V26H10V23.94C12.1994 23.6941 14.231 22.6465 15.7068 20.9973C17.1825 19.3482 17.9989 17.2131 18 15V12H16Z" fill="#BBBBBB"/>
<path d="M9 20C10.3261 20 11.5979 19.4732 12.5355 18.5355C13.4732 17.5979 14 16.3261 14 15V5C14 3.67392 13.4732 2.40215 12.5355 1.46447C11.5979 0.526784 10.3261 0 9 0C7.67392 0 6.40215 0.526784 5.46447 1.46447C4.52678 2.40215 4 3.67392 4 5V15C4 16.3261 4.52678 17.5979 5.46447 18.5355C6.40215 19.4732 7.67392 20 9 20ZM6 5C6 4.20435 6.31607 3.44129 6.87868 2.87868C7.44129 2.31607 8.20435 2 9 2C9.79565 2 10.5587 2.31607 11.1213 2.87868C11.6839 3.44129 12 4.20435 12 5V15C12 15.7956 11.6839 16.5587 11.1213 17.1213C10.5587 17.6839 9.79565 18 9 18C8.20435 18 7.44129 17.6839 6.87868 17.1213C6.31607 16.5587 6 15.7956 6 15V5Z" fill="#BBBBBB"/>
</svg>
