<svg width="42" height="51" viewBox="0 0 42 51" fill="none" xmlns="http://www.w3.org/2000/svg">
<path d="M34.8439 27.5937C34.8439 21.2969 40.1252 18.25 40.3283 18.0469C37.2814 13.7812 32.8127 13.1719 31.1877 12.9687C27.3283 12.5625 23.4689 15.2031 21.6408 15.2031C19.6096 15.2031 16.5627 12.9687 13.3127 12.9687C9.04707 12.9687 5.18769 15.4062 2.95332 19.2656C-1.51543 26.9844 1.73457 38.3594 6.00019 44.6562C8.23457 47.7031 10.6721 51.1562 13.9221 50.9531C17.1721 50.75 18.3908 48.9219 22.2502 48.9219C26.1096 48.9219 27.1252 50.9531 30.5783 50.9531C34.0314 50.9531 36.2658 47.9062 38.2971 44.8594C40.7346 41.4062 41.7502 37.9531 41.7502 37.75C41.5471 37.5469 34.8439 35.1094 34.8439 27.5937Z" fill="white"/>
<path d="M28.5467 8.90625C30.1717 6.67187 31.3904 3.82812 31.1873 0.78125C28.7498 0.984375 25.4998 2.40625 23.8748 4.64062C22.2498 6.46875 20.8279 9.51562 21.2342 12.3594C23.8748 12.5625 26.7186 10.9375 28.5467 8.90625Z" fill="white"/>
</svg>
