<svg width="46" height="49" viewBox="0 0 46 49" fill="none" xmlns="http://www.w3.org/2000/svg">
<path fill-rule="evenodd" clip-rule="evenodd" d="M0.90625 24.1875V2.85938C0.90625 1.64063 1.92187 0.625 2.9375 0.625C3.95312 0.625 4.35937 0.828123 4.96875 1.23437L44.1719 22.7656C44.9844 23.1719 45.3906 23.7812 45.3906 24.3906C45.3906 25 44.9844 25.6094 44.1719 26.0156L4.96875 47.5469C4.5625 47.75 3.95312 48.1562 2.9375 48.1562C1.92187 48.1562 0.90625 47.1406 0.90625 45.9219V24.1875Z" fill="url(#paint0_linear)"/>
<path fill-rule="evenodd" clip-rule="evenodd" d="M26.2969 24.3906L2.53125 0.625C2.73438 0.625 2.73437 0.625 2.93749 0.625C3.95312 0.625 4.35937 0.828123 4.96874 1.23437L33.8125 17.0781L26.2969 24.3906Z" fill="url(#paint1_linear)"/>
<path fill-rule="evenodd" clip-rule="evenodd" d="M33.6094 31.5L26.2969 24.1875L33.8125 16.6719L44.1719 22.3594C44.9844 22.7656 45.3906 23.375 45.3906 23.9844C45.3906 24.5938 44.9844 25.2031 44.1719 25.6094L33.6094 31.5Z" fill="url(#paint2_linear)"/>
<path fill-rule="evenodd" clip-rule="evenodd" d="M2.73438 47.75L26.2969 24.1875L33.6094 31.5L4.96876 47.1406C4.35939 47.5469 3.95313 47.75 2.73438 47.75C2.9375 47.75 2.9375 47.75 2.73438 47.75Z" fill="url(#paint3_linear)"/>
<defs>
<linearGradient id="paint0_linear" x1="14.0432" y1="-2.27238" x2="25.4145" y2="44.4279" gradientUnits="userSpaceOnUse">
<stop stop-color="#006884"/>
<stop offset="1" stop-color="#8AD1D0"/>
</linearGradient>
<linearGradient id="paint1_linear" x1="0.176423" y1="4.37022" x2="31.1652" y2="21.1229" gradientUnits="userSpaceOnUse">
<stop stop-color="#24BBB6"/>
<stop offset="1" stop-color="#DBE692"/>
</linearGradient>
<linearGradient id="paint2_linear" x1="35.8324" y1="32.3533" x2="35.8324" y2="16.2081" gradientUnits="userSpaceOnUse">
<stop stop-color="#FCC072"/>
<stop offset="1" stop-color="#F58A5B"/>
</linearGradient>
<linearGradient id="paint3_linear" x1="6.17673" y1="51.9529" x2="30.6568" y2="27.0392" gradientUnits="userSpaceOnUse">
<stop stop-color="#712B8F"/>
<stop offset="1" stop-color="#EA1D27"/>
</linearGradient>
</defs>
</svg>
